<svg xmlns="http://www.w3.org/2000/svg" viewBox="0 0 512 512">
  <defs>
    <style>
      .logo-fill {
        fill: url(#logo-gradient);
        fill-rule: evenodd;
      }
    </style>
    <linearGradient id="logo-gradient" x1="275.195738" y1="382.656437" x2="110.259857" y2="109.156422" gradientTransform="translate(0 514) scale(1 -1)" gradientUnits="userSpaceOnUse">
      <stop offset="0" stop-color="lime"/>
      <stop offset="1" stop-color="#03b52c"/>
    </linearGradient>
  </defs>
  <path class="logo-fill" d="M159.204261,264.089182c-17.412072,39.80107-50.57936,51.40805-88.724099,64.67507-5.805082,1.656855-19.90048,6.633772-24.873909,12.438855-3.31673,7.461958-7.461834,17.412082-9.95024,24.87402-.828324,2.488206,29.850931,3.316896,23.217154,18.240247-1.656331,3.316876-4.145052,4.973207-8.290053,4.973207h-17.41556c-9.121918,0-16.583751-7.461414-16.583751-16.583372,0-9.950668,1.656646-14.09571,5.805187-23.217688,5.805188-9.950144,8.290159-14.923351,12.438698-25.70535,2.488405-5.805082,1.656646-2.488731,4.145052-9.121979,3.316783-7.461938,2.488458-4.145042,4.973431-10.778814,2.488458-8.290103,5.805183-8.290103,14.923825-10.77831,16.583382-4.145042,24.04532-9.950648,33.995988-25.705875,8.290103-18.240762,9.950134-33.995978,17.412072-50.579894,3.316362-8.290103,3.316362-6.633248,9.121968-13.26702l-2.48872,7.461938c-12.438865,39.80107-1.660031,64.67508-42.289262,91.20912-7.461943,3.316896-11.606994,3.316896-16.583911,5.805082-.828166,3.316896-2.48872,6.633772-4.145052,10.778834,8.290103-2.488731,16.583911-4.145062,24.04532-5.805082,7.461938-2.488731,14.09572-4.145062,20.728968-6.633772,35.659708-11.600125,36.491573-22.378414,60.536893-42.279217ZM320.065378,389.29429h-20.728958c-8.290103,0-14.923351-5.805082-16.583916-13.26702-4.145042-22.388999,10.778834-59.701873,14.923896-72.968893,2.488186-6.633248,3.316876-13.26702,4.145042-19.900268-35.656019-3.316896-47.262998-17.412072-75.457079-33.167822-3.316876-1.656321-4.973207-2.488186-8.290103-3.316352.828166,14.923351-3.316896,24.873485-11.606999,38.97236-18.240227,20.728978-33.167288,23.217688-50.579884,38.972915-3.316362,3.316876-5.805082,6.633772-5.805082,11.606979.82869,4.145062,6.633772,19.900268,9.121968,21.557144,3.316886,1.656855,14.095186,4.145042,18.240772,10.778814,1.656331,2.488206,2.488186,5.805082.828166,9.121979-1.656855,2.488186-4.145062,4.145042-7.461938,4.145042h-17.412082c-9.950134,0-11.606989-6.633772-12.438855-14.09571-.828166-10.77829-3.316362-30.679102-3.316362-33.995454v.828166c1.656331-7.461938,5.805082-12.438855,10.7783-17.412082,9.950134-9.950648,19.072102-14.923875,29.850936-22.388978,16.583896-10.778834,24.04531-19.900812,25.705875-39.80107,1.656331-20.728958-2.488731-17.412072-16.583916-24.87402,29.022247-.82869,52.239935,10.7783,76.285245,25.705885,8.290103,4.976383,16.583916,9.121434,25.705875,11.606465,5.805082,1.656855,17.412082,4.145052,24.87402,4.973741,3.316896,9.121979-3.316876,34.824144-6.633772,45.606143-.828166,4.145062-2.488186,8.293813-3.316352,12.438855-1.656855,4.973227-5.805627,25.70535-3.316896,29.850936,9.121979,15.755226,27.362206,2.488206,27.362206,20.728434.00371,4.976917-3.313187,8.293813-8.290103,8.293813ZM359.038273,269.891089c-4.145062-5.805082-3.316896-10.778824,0-16.583906,11.60702-22.388999,20.728978-39.80107,43.946122-51.40806,6.633268-4.145052,8.290123.828166,17.412082,2.48872,4.973227.828166,14.095186,0,14.923875.828166v-13.26702c8.290123-6.633777,14.095186-7.461943,31.507268-10.778829,19.072082-4.145052,39.80106-19.072102,31.507268-43.117689-5.805103.828324-16.583392,2.488458-22.389019,3.316783-23.217144,3.316727-4.145021-14.095347-38.14102-10.778617-5.805103.828324-11.606455,1.656646-16.583392,3.316783-14.09571,4.145052,5.805103,14.095342-33.167792,23.21726-25.705915,6.633404-23.217184,6.633404-48.923059,6.633404-29.022226.828695-33.995978,3.316891-60.530018,9.950663-4.973227,1.656331-63.84639,1.656331-77.11341,2.488196-24.87402,1.660031-40.62976,6.633248-64.67508,11.606989-2.48872,0-18.240762-4.145052-24.045844-4.973741-38.14104-3.316362-72.968623,14.923881-106.136178-12.43833l-6.630076-5.805082,14.923669,8.293279c35.656014,19.072097,75.457286-6.633248,120.231573,5.805077l5.805082-1.656326c52.239915-13.267025,81.258996-12.43886,135.158932-14.923881,33.167288-11.606833,48.923039-11.606833,84.575348-11.606833,12.438855-2.488408,28.190896-5.805188,38.972895-10.778617l.828166-1.656649,2.488731-5.805186c5.805103-8.290159,15.755226-11.60694,25.705875-13.267023,8.290123-.828323,18.240247-2.488458,26.53404-1.656647,7.461434,1.656647,12.43833,4.145053,19.072123,12.4387l.828166,1.656646c.828166,0,2.488731,0,4.145062-.828324,9.121958-.828322,24.873999-5.805187,29.02273,4.145107,6.633268,15.755426,4.973227,33.167608-9.950648,44.774598-22.388978,17.412072-30.679102,10.7783-49.751184,19.900268l-1.656855.8287v5.805072l-.828166,3.316896c-4.973227,14.095186-25.705875,11.606455-38.972895,6.633238-20.728454,14.923886-24.04535,24.045854-34.824164,44.774288,8.290083,6.633772,17.412082,10.778824,27.36273,20.728968,4.145062,9.121958,2.488206,12.438855-3.316896,19.900792-14.095186,9.950124-24.045834,16.583916-40.629226,19.900268-12.438855,1.660565-19.900792-2.488186-18.240751-14.095186.828145-9.950144,25.705854-4.973227,43.946102-15.755226,1.656855-1.660545,0-4.976917-2.488206-7.461938-4.145021-2.48871-4.145021-1.656855-8.290083-4.145042-1.656855-1.660041-4.145062-3.316896-6.633792-4.976917-1.66371-1.666906-3.323751-2.495595-4.980082-4.983792Z"/>
</svg>