<svg xmlns="http://www.w3.org/2000/svg" width="434" height="56" viewBox="0 0 434 56" fill="none">
    <path fill-rule="evenodd" clip-rule="evenodd" d="M30.1236 30.0603C26.829 37.5912 20.5533 39.7874 13.3358 42.2977C12.2374 42.6112 9.57036 43.5529 8.62932 44.6513C8.00175 46.0632 7.21744 47.9459 6.7466 49.3578C6.58987 49.8286 12.3948 49.9854 11.1396 52.8091C10.8262 53.4367 10.3553 53.7501 9.57101 53.7501H6.27575C4.54976 53.7501 3.13788 52.3383 3.13788 50.6123C3.13788 48.7295 3.45134 47.9452 4.2363 46.2192C5.33472 44.3365 5.80491 43.3955 6.58987 41.3554C7.06071 40.257 6.90333 40.8845 7.37417 39.6294C8.00175 38.2175 7.84502 38.8451 8.31521 37.5899C8.78606 36.0213 9.41363 36.0213 11.139 35.5505C14.2768 34.7662 15.6887 33.6677 17.5715 30.6866C19.1401 27.2352 19.4542 24.2541 20.8661 21.1162C21.4936 19.5476 21.4936 19.8611 22.5921 18.6059L22.1212 20.0178C19.7676 27.5487 21.8071 32.2552 14.1195 37.2758C12.7076 37.9034 11.9233 37.9034 10.9816 38.3742C10.8249 39.0018 10.5107 39.6294 10.1973 40.4137C11.7659 39.9428 13.3352 39.6294 14.747 39.3153C16.1589 38.8444 17.4141 38.531 18.6692 38.0601C25.4165 35.8652 25.5739 33.8258 30.1236 30.0603ZM60.5607 53.7508H56.6385C55.0699 53.7508 53.8148 52.6524 53.5006 51.2405C52.7163 47.0042 55.5401 39.9441 56.3244 37.4338C56.7952 36.1787 56.952 34.9235 57.1087 33.6684C50.3621 33.0408 48.1659 30.3738 42.8312 27.3926C42.2036 27.0792 41.8902 26.9218 41.2626 26.7651C41.4193 29.5888 40.635 31.4715 39.0664 34.1392C35.6151 38.0614 32.7907 38.5323 29.496 41.5134C28.8685 42.141 28.3976 42.7686 28.3976 43.7096C28.5544 44.4939 29.6528 47.475 30.1236 47.7885C30.7512 48.102 32.7906 48.5728 33.575 49.828C33.8884 50.2988 34.0458 50.9264 33.7317 51.554C33.4182 52.0248 32.9474 52.3383 32.3198 52.3383H29.0252C27.1425 52.3383 26.829 51.0831 26.6716 49.6712C26.5149 47.6318 26.0441 43.8663 26.0441 43.2388V43.3955C26.3575 41.9836 27.1425 41.0419 28.0835 40.1009C29.9662 38.2181 31.6922 37.2771 33.7317 35.8646C36.8696 33.8251 38.2814 32.0991 38.5956 28.3337C38.909 24.4115 38.1247 25.0391 35.4577 23.6272C40.9491 23.4704 45.3422 25.6666 49.8919 28.4911C51.4605 29.4327 53.0298 30.217 54.7558 30.6872C55.8542 31.0007 58.0504 31.4715 59.4623 31.6283C60.0899 33.3543 58.8347 38.2175 58.2071 40.2576C58.0504 41.0419 57.7363 41.8269 57.5796 42.6112C57.2661 43.5522 56.4811 47.475 56.952 48.2594C58.678 51.2405 62.1293 48.7302 62.1293 52.1815C62.13 53.1232 61.5024 53.7508 60.5607 53.7508ZM67.9349 31.1581C67.1506 30.0597 67.3073 29.1186 67.9349 28.0202C70.1311 23.7839 71.8571 20.4893 76.2501 18.2931C77.5052 17.5088 77.8187 18.4498 79.5447 18.764C80.4857 18.9207 82.2117 18.764 82.3685 18.9207V18.764C82.3685 18.764 82.3685 16.7245 82.3685 16.4104C83.9371 15.1552 85.0355 14.9985 88.3301 14.3709C91.9388 13.5866 95.861 10.7622 94.2917 6.21245C93.1933 6.36918 91.1539 6.6833 90.0554 6.84003C85.6624 7.4676 89.2711 4.173 82.8386 4.80057C81.7402 4.9573 80.6425 5.11403 79.7008 5.42815C77.0337 6.21245 80.7992 8.09518 73.425 9.82117C68.5611 11.0763 69.032 11.0763 64.1681 11.0763C58.6767 11.2331 57.7356 11.7039 52.715 12.9591C51.774 13.2725 40.6344 13.2725 38.1241 13.4299C33.4176 13.744 30.4364 14.685 25.8867 15.6261C25.4158 15.6261 22.4353 14.8418 21.3369 14.685C14.1201 14.0575 7.53025 17.5088 1.2545 12.3315L0 11.2331L2.82376 12.8023C9.57036 16.411 17.1013 11.5472 25.5732 13.9007L26.6716 13.5873C36.5561 11.077 42.0469 11.2337 52.2455 10.7635C58.5212 8.56733 61.5024 8.56733 68.2483 8.56733C70.6019 8.09649 73.5824 7.46891 75.6225 6.52787L75.7792 6.21441L76.2501 5.11599C77.3485 3.54738 79.2312 2.9198 81.114 2.60569C82.6826 2.44896 84.5653 2.13484 86.1346 2.29223C87.5464 2.60569 88.4881 3.07653 89.7433 4.6458L89.9 4.95926C90.0567 4.95926 90.3709 4.95926 90.6843 4.80253C92.4103 4.6458 95.3908 3.70411 96.1758 5.58684C97.4309 8.56798 97.1168 11.8626 94.293 14.0588C90.0567 17.3534 88.4881 16.0982 84.8794 17.8242L84.5659 17.981V19.0794L84.4092 19.707C83.4682 22.374 79.5453 21.9031 77.035 20.9621C73.1129 23.7859 72.4853 25.5119 70.4458 29.434C72.0144 30.6892 73.7404 31.4735 75.6232 33.3562C76.4075 35.0822 76.094 35.7098 74.9956 37.1217C72.3286 39.0044 70.4458 40.2596 67.308 40.8871C64.9544 41.2013 63.5425 40.4163 63.8566 38.2201C64.0133 36.3374 68.7205 37.2791 72.1718 35.239C72.4853 34.9248 72.1718 34.2973 71.701 33.8271C70.9167 33.3562 70.9167 33.5136 70.1324 33.0428C69.8189 32.7287 69.3481 32.4152 68.8772 32.1011C68.5624 31.7857 68.2483 31.6289 67.9349 31.1581Z" fill="white"></path>
    <path fill-rule="evenodd" clip-rule="evenodd" d="M30.1236 30.0603C26.829 37.5912 20.5533 39.7874 13.3358 42.2977C12.2374 42.6112 9.57036 43.5529 8.62932 44.6513C8.00175 46.0632 7.21744 47.9459 6.7466 49.3578C6.58987 49.8286 12.3948 49.9854 11.1396 52.8091C10.8262 53.4367 10.3553 53.7501 9.57101 53.7501H6.27575C4.54976 53.7501 3.13788 52.3383 3.13788 50.6123C3.13788 48.7295 3.45134 47.9452 4.2363 46.2192C5.33472 44.3365 5.80491 43.3955 6.58987 41.3554C7.06071 40.257 6.90333 40.8845 7.37417 39.6294C8.00175 38.2175 7.84502 38.8451 8.31521 37.5899C8.78606 36.0213 9.41363 36.0213 11.139 35.5505C14.2768 34.7662 15.6887 33.6677 17.5715 30.6866C19.1401 27.2352 19.4542 24.2541 20.8661 21.1162C21.4936 19.5476 21.4936 19.8611 22.5921 18.6059L22.1212 20.0178C19.7676 27.5487 21.8071 32.2552 14.1195 37.2758C12.7076 37.9034 11.9233 37.9034 10.9816 38.3742C10.8249 39.0018 10.5107 39.6294 10.1973 40.4137C11.7659 39.9428 13.3352 39.6294 14.747 39.3153C16.1589 38.8444 17.4141 38.531 18.6692 38.0601C25.4165 35.8652 25.5739 33.8258 30.1236 30.0603ZM60.5607 53.7508H56.6385C55.0699 53.7508 53.8148 52.6524 53.5006 51.2405C52.7163 47.0042 55.5401 39.9441 56.3244 37.4338C56.7952 36.1787 56.952 34.9235 57.1087 33.6684C50.3621 33.0408 48.1659 30.3738 42.8312 27.3926C42.2036 27.0792 41.8902 26.9218 41.2626 26.7651C41.4193 29.5888 40.635 31.4715 39.0664 34.1392C35.6151 38.0614 32.7907 38.5323 29.496 41.5134C28.8685 42.141 28.3976 42.7686 28.3976 43.7096C28.5544 44.4939 29.6528 47.475 30.1236 47.7885C30.7512 48.102 32.7906 48.5728 33.575 49.828C33.8884 50.2988 34.0458 50.9264 33.7317 51.554C33.4182 52.0248 32.9474 52.3383 32.3198 52.3383H29.0252C27.1425 52.3383 26.829 51.0831 26.6716 49.6712C26.5149 47.6318 26.0441 43.8663 26.0441 43.2388V43.3955C26.3575 41.9836 27.1425 41.0419 28.0835 40.1009C29.9662 38.2181 31.6922 37.2771 33.7317 35.8646C36.8696 33.8251 38.2814 32.0991 38.5956 28.3337C38.909 24.4115 38.1247 25.0391 35.4577 23.6272C40.9491 23.4704 45.3422 25.6666 49.8919 28.4911C51.4605 29.4327 53.0298 30.217 54.7558 30.6872C55.8542 31.0007 58.0504 31.4715 59.4623 31.6283C60.0899 33.3543 58.8347 38.2175 58.2071 40.2576C58.0504 41.0419 57.7363 41.8269 57.5796 42.6112C57.2661 43.5522 56.4811 47.475 56.952 48.2594C58.678 51.2405 62.1293 48.7302 62.1293 52.1815C62.13 53.1232 61.5024 53.7508 60.5607 53.7508ZM67.9349 31.1581C67.1506 30.0597 67.3073 29.1186 67.9349 28.0202C70.1311 23.7839 71.8571 20.4893 76.2501 18.2931C77.5052 17.5088 77.8187 18.4498 79.5447 18.764C80.4857 18.9207 82.2117 18.764 82.3685 18.9207V18.764C82.3685 18.764 82.3685 16.7245 82.3685 16.4104C83.9371 15.1552 85.0355 14.9985 88.3301 14.3709C91.9388 13.5866 95.861 10.7622 94.2917 6.21245C93.1933 6.36918 91.1539 6.6833 90.0554 6.84003C85.6624 7.4676 89.2711 4.173 82.8386 4.80057C81.7402 4.9573 80.6425 5.11403 79.7008 5.42815C77.0337 6.21245 80.7992 8.09518 73.425 9.82117C68.5611 11.0763 69.032 11.0763 64.1681 11.0763C58.6767 11.2331 57.7356 11.7039 52.715 12.9591C51.774 13.2725 40.6344 13.2725 38.1241 13.4299C33.4176 13.744 30.4364 14.685 25.8867 15.6261C25.4158 15.6261 22.4353 14.8418 21.3369 14.685C14.1201 14.0575 7.53025 17.5088 1.2545 12.3315L0 11.2331L2.82376 12.8023C9.57036 16.411 17.1013 11.5472 25.5732 13.9007L26.6716 13.5873C36.5561 11.077 42.0469 11.2337 52.2455 10.7635C58.5212 8.56733 61.5024 8.56733 68.2483 8.56733C70.6019 8.09649 73.5824 7.46891 75.6225 6.52787L75.7792 6.21441L76.2501 5.11599C77.3485 3.54738 79.2312 2.9198 81.114 2.60569C82.6826 2.44896 84.5653 2.13484 86.1346 2.29223C87.5464 2.60569 88.4881 3.07653 89.7433 4.6458L89.9 4.95926C90.0567 4.95926 90.3709 4.95926 90.6843 4.80253C92.4103 4.6458 95.3908 3.70411 96.1758 5.58684C97.4309 8.56798 97.1168 11.8626 94.293 14.0588C90.0567 17.3534 88.4881 16.0982 84.8794 17.8242L84.5659 17.981V19.0794L84.4092 19.707C83.4682 22.374 79.5453 21.9031 77.035 20.9621C73.1129 23.7859 72.4853 25.5119 70.4458 29.434C72.0144 30.6892 73.7404 31.4735 75.6232 33.3562C76.4075 35.0822 76.094 35.7098 74.9956 37.1217C72.3286 39.0044 70.4458 40.2596 67.308 40.8871C64.9544 41.2013 63.5425 40.4163 63.8566 38.2201C64.0133 36.3374 68.7205 37.2791 72.1718 35.239C72.4853 34.9248 72.1718 34.2973 71.701 33.8271C70.9167 33.3562 70.9167 33.5136 70.1324 33.0428C69.8189 32.7287 69.3481 32.4152 68.8772 32.1011C68.5624 31.7857 68.2483 31.6289 67.9349 31.1581Z" fill="url(#paint0_linear_1643_75573)"></path>
    <path d="M247.543 43.8175C250.075 43.8175 252.425 43.2751 254.594 42.0097C256.583 40.7443 258.391 38.9361 259.656 36.7666C260.922 34.7778 261.464 32.4276 261.464 29.7158V26.2809C261.464 23.7497 260.922 21.3995 259.656 19.23C258.391 17.0606 256.583 15.2528 254.594 13.987C252.425 12.7216 250.075 12.1792 247.543 12.1792H225.125V43.8179L247.543 43.8175ZM247.543 37.309H231.634V18.6873H247.543C248.809 18.6873 250.075 19.049 251.34 19.5914C252.425 20.3144 253.329 21.2185 254.052 22.4839C254.775 23.5686 255.137 24.834 255.137 26.2805V29.7154C255.137 31.1618 254.775 32.4272 254.052 33.512C253.329 34.7774 252.425 35.6815 251.34 36.4045C250.074 36.9473 248.809 37.309 247.543 37.309Z" fill="white"></path>
    <path d="M222.234 43.8179V37.3094H204.154C202.708 37.3094 201.443 36.9477 200.358 36.4053C199.092 35.6823 198.188 34.7782 197.646 33.5128C196.923 32.4281 196.561 31.1627 196.561 29.7162V12.1792H190.053V29.7162C190.053 32.4281 190.776 34.7782 192.042 36.767C193.307 38.9365 194.934 40.7443 197.104 42.0101C199.273 43.2755 201.623 43.8179 204.154 43.8179H222.234Z" fill="white"></path>
    <path d="M187.34 37.4915H169.261C164.741 37.4915 162.933 34.7797 162.21 31.3448H187.34V24.6556H162.21C162.933 21.2208 164.741 18.5089 169.261 18.5089H187.34V12H169.261C166.549 12 164.199 12.723 162.21 13.9888C160.04 15.2542 158.233 16.8814 156.967 19.0508C154.436 23.2092 154.436 32.7912 156.967 36.9492C158.232 39.1186 160.04 40.9264 162.21 42.1922C164.199 43.4576 166.549 44 169.261 44H187.34V37.4915Z" fill="white"></path>
    <path d="M151.907 12.1792H145.398V43.8179H151.907V12.1792Z" fill="white"></path>
    <path d="M135.815 12.1792V26.2809H122.798C118.64 26.2809 115.205 22.846 115.205 18.6877V12.1792H108.877V20.8572C108.877 27.7274 115.747 32.7894 122.798 32.7894H135.634C134.911 34.0548 134.007 35.3206 132.742 36.0436C131.476 36.9477 130.03 37.4901 128.584 37.4901C124.787 37.4901 123.883 37.4901 120.086 37.4901C116.29 37.4901 112.674 37.4901 108.877 37.4901V43.9985C112.493 43.9985 116.29 43.9985 119.905 43.9985C123.521 43.9985 124.425 43.9985 128.221 43.9985C131.656 43.8179 134.73 42.7331 137.261 40.7443C140.696 37.8518 142.323 34.7782 142.323 30.4392V12.1792H135.815Z" fill="white"></path>
    <path d="M332.235 43.8193C334.767 43.8193 337.117 43.0963 339.286 41.8305C341.456 40.5651 343.083 38.938 344.348 36.7685C345.614 34.599 346.337 32.2489 346.337 29.7176V26.1017C346.337 23.5705 345.614 21.2203 344.348 19.0508C343.083 17.062 341.456 15.2542 339.286 13.9888C337.117 12.7234 334.767 12 332.235 12H324.1C321.388 12 319.038 12.723 317.049 13.9888C314.879 15.2542 313.072 17.0624 311.806 19.0508C310.54 21.2203 309.998 23.5705 309.998 26.1017V29.7176C309.998 32.2489 310.54 34.599 311.806 36.7685C313.071 38.938 314.879 40.5651 317.049 41.8305C319.038 43.0959 321.388 43.8193 324.1 43.8193H332.235ZM332.235 37.3109H324.1C322.653 37.3109 321.388 36.9491 320.303 36.2261C319.038 35.5031 318.134 34.599 317.411 33.5143C316.868 32.4295 316.507 31.1641 316.507 29.7176V26.1017C316.507 24.8363 316.868 23.5705 317.411 22.3051C318.134 21.2203 319.038 20.3162 320.303 19.5932C321.388 18.8702 322.653 18.5085 324.1 18.5085H332.235C333.682 18.5085 334.947 18.8702 336.032 19.5932C337.297 20.3162 338.202 21.2203 338.744 22.3051C339.467 23.5705 339.829 24.8363 339.829 26.1017V29.7176C339.829 31.1641 339.467 32.4295 338.744 33.5143C338.202 34.599 337.117 35.5031 336.032 36.2261C334.947 36.9491 333.682 37.3109 332.235 37.3109Z" fill="white"></path>
    <path d="M428.054 38.5785V39.8439H426.789V42.7365H425.523V39.8439H424.258V38.5785H428.054ZM432.755 38.5785C432.935 38.5785 433.116 38.5785 433.116 38.5785C433.297 38.5785 433.478 38.7592 433.478 38.7592C433.659 38.9398 433.659 38.9398 433.84 39.1209V39.3016V42.7365H432.575V40.0246C432.575 40.0246 432.574 39.8439 432.394 39.8439H432.213C432.033 39.8439 432.033 39.8439 432.033 39.8439C431.852 39.8439 431.852 40.0246 431.852 40.0246V42.7365H430.586V40.0246L430.406 39.8439C430.406 39.8439 430.406 39.8439 430.225 39.8439H429.863V42.7365H428.598V38.5781H430.768C430.948 38.5781 430.948 38.5781 430.948 38.7588H431.129C431.129 38.7588 431.129 38.7588 431.129 38.9394C431.31 38.7588 431.31 38.7588 431.31 38.7588H431.49C431.49 38.5781 431.49 38.5781 431.671 38.5781H432.755V38.5785Z" fill="white"></path>
    <path d="M281.071 43.8198V35.8648H281.252H297.704C302.766 35.8648 306.744 31.7065 306.744 26.8251V21.0397C306.744 15.9777 302.766 12 297.704 12H274.562V18.6891V43.8193H281.071V43.8198ZM281.071 28.9946V18.6895H296.439C298.427 18.6895 300.055 20.3167 300.055 22.3055V25.3791C300.055 27.3679 298.427 28.995 296.439 28.995H281.071V28.9946Z" fill="white"></path>
    <path d="M355.379 12H348.689V43.6387H355.379V12Z" fill="white"></path>
    <path d="M365.318 43.6387V23.0281L382.313 43.6387H389.002V41.4692V12H382.313V32.6102L365.318 12H358.629V43.6387H365.318Z" fill="white"></path>
    <path d="M409.616 43.6387V18.6891H421.367V12H409.616H402.926H391.355V18.6891H402.926V43.6387H409.616Z" fill="white"></path>
    <defs>
        <linearGradient id="paint0_linear_1643_75573" x1="75.8645" y1="19.292" x2="44.6564" y2="71.0419" gradientUnits="userSpaceOnUse">
            <stop stop-color="#00FF00"></stop>
            <stop offset="1" stop-color="#03B52C"></stop>
        </linearGradient>
    </defs>
</svg>